<mxfile host="Electron" agent="Mozilla/5.0 (Macintosh; Intel Mac OS X 10_15_7) AppleWebKit/537.36 (KHTML, like Gecko) draw.io/26.0.4 Chrome/128.0.6613.186 Electron/32.2.5 Safari/537.36" version="26.0.4">
  <diagram name="Страница — 1" id="FLKnb8VxyuF6A4StAYXA">
    <mxGraphModel dx="986" dy="1763" grid="0" gridSize="10" guides="1" tooltips="1" connect="1" arrows="1" fold="1" page="0" pageScale="1" pageWidth="827" pageHeight="1169" math="0" shadow="0">
      <root>
        <mxCell id="0" />
        <mxCell id="1" parent="0" />
        <mxCell id="pQx3iZtivwP6ukkQNSp4-14" value="Cars" style="swimlane;fontStyle=1;align=center;verticalAlign=top;childLayout=stackLayout;horizontal=1;startSize=26;horizontalStack=0;resizeParent=1;resizeParentMax=0;resizeLast=0;collapsible=1;marginBottom=0;whiteSpace=wrap;html=1;" parent="1" vertex="1">
          <mxGeometry x="330" y="540" width="220" height="230" as="geometry" />
        </mxCell>
        <mxCell id="pQx3iZtivwP6ukkQNSp4-15" value="&lt;div&gt;- brand: String&lt;/div&gt;&lt;div&gt;- model: String&amp;nbsp;&lt;/div&gt;&lt;div&gt;&lt;span style=&quot;background-color: transparent; color: light-dark(rgb(0, 0, 0), rgb(255, 255, 255));&quot;&gt;- year: int&lt;/span&gt;&lt;/div&gt;&lt;div&gt;- price: String&lt;/div&gt;&lt;div&gt;&lt;div&gt;- description: String&lt;/div&gt;&lt;div&gt;- imagePath: String&lt;/div&gt;&lt;/div&gt;" style="text;strokeColor=none;fillColor=none;align=left;verticalAlign=top;spacingLeft=4;spacingRight=4;overflow=hidden;rotatable=0;points=[[0,0.5],[1,0.5]];portConstraint=eastwest;whiteSpace=wrap;html=1;" parent="pQx3iZtivwP6ukkQNSp4-14" vertex="1">
          <mxGeometry y="26" width="220" height="94" as="geometry" />
        </mxCell>
        <mxCell id="pQx3iZtivwP6ukkQNSp4-16" value="" style="line;strokeWidth=1;fillColor=none;align=left;verticalAlign=middle;spacingTop=-1;spacingLeft=3;spacingRight=3;rotatable=0;labelPosition=right;points=[];portConstraint=eastwest;strokeColor=inherit;" parent="pQx3iZtivwP6ukkQNSp4-14" vertex="1">
          <mxGeometry y="120" width="220" height="8" as="geometry" />
        </mxCell>
        <mxCell id="pQx3iZtivwP6ukkQNSp4-17" value="&lt;div&gt;+ getBrand(): String&lt;/div&gt;&lt;div&gt;+ getModel(): String&lt;/div&gt;&lt;div&gt;+ getYear(): int&lt;/div&gt;&lt;div&gt;+ getPrice(): String&lt;/div&gt;&lt;div&gt;+ getDescription(): String&lt;/div&gt;&lt;div&gt;+ getImagePath(): String&lt;/div&gt;" style="text;strokeColor=none;fillColor=none;align=left;verticalAlign=top;spacingLeft=4;spacingRight=4;overflow=hidden;rotatable=0;points=[[0,0.5],[1,0.5]];portConstraint=eastwest;whiteSpace=wrap;html=1;" parent="pQx3iZtivwP6ukkQNSp4-14" vertex="1">
          <mxGeometry y="128" width="220" height="102" as="geometry" />
        </mxCell>
        <mxCell id="pQx3iZtivwP6ukkQNSp4-37" style="edgeStyle=orthogonalEdgeStyle;rounded=0;orthogonalLoop=1;jettySize=auto;html=1;entryX=0.5;entryY=0;entryDx=0;entryDy=0;" parent="1" source="pQx3iZtivwP6ukkQNSp4-18" target="pQx3iZtivwP6ukkQNSp4-14" edge="1">
          <mxGeometry relative="1" as="geometry" />
        </mxCell>
        <mxCell id="pQx3iZtivwP6ukkQNSp4-18" value="CarController" style="swimlane;fontStyle=1;align=center;verticalAlign=top;childLayout=stackLayout;horizontal=1;startSize=26;horizontalStack=0;resizeParent=1;resizeParentMax=0;resizeLast=0;collapsible=1;marginBottom=0;whiteSpace=wrap;html=1;" parent="1" vertex="1">
          <mxGeometry x="330" y="320" width="220" height="150" as="geometry" />
        </mxCell>
        <mxCell id="pQx3iZtivwP6ukkQNSp4-19" value="&lt;div&gt;- view: CarView&lt;/div&gt;&lt;div&gt;- cars: List&amp;lt;Car&amp;gt;&lt;/div&gt;" style="text;strokeColor=none;fillColor=none;align=left;verticalAlign=top;spacingLeft=4;spacingRight=4;overflow=hidden;rotatable=0;points=[[0,0.5],[1,0.5]];portConstraint=eastwest;whiteSpace=wrap;html=1;" parent="pQx3iZtivwP6ukkQNSp4-18" vertex="1">
          <mxGeometry y="26" width="220" height="44" as="geometry" />
        </mxCell>
        <mxCell id="pQx3iZtivwP6ukkQNSp4-20" value="" style="line;strokeWidth=1;fillColor=none;align=left;verticalAlign=middle;spacingTop=-1;spacingLeft=3;spacingRight=3;rotatable=0;labelPosition=right;points=[];portConstraint=eastwest;strokeColor=inherit;" parent="pQx3iZtivwP6ukkQNSp4-18" vertex="1">
          <mxGeometry y="70" width="220" height="8" as="geometry" />
        </mxCell>
        <mxCell id="pQx3iZtivwP6ukkQNSp4-21" value="&lt;div&gt;+ CarController(view: CarView)&lt;/div&gt;&lt;div&gt;+ loadCars(): void&lt;/div&gt;&lt;div&gt;+ onCarSelected(selectedCar: String): void&lt;/div&gt;" style="text;strokeColor=none;fillColor=none;align=left;verticalAlign=top;spacingLeft=4;spacingRight=4;overflow=hidden;rotatable=0;points=[[0,0.5],[1,0.5]];portConstraint=eastwest;whiteSpace=wrap;html=1;" parent="pQx3iZtivwP6ukkQNSp4-18" vertex="1">
          <mxGeometry y="78" width="220" height="72" as="geometry" />
        </mxCell>
        <mxCell id="pQx3iZtivwP6ukkQNSp4-22" value="Database" style="swimlane;fontStyle=1;align=center;verticalAlign=top;childLayout=stackLayout;horizontal=1;startSize=26;horizontalStack=0;resizeParent=1;resizeParentMax=0;resizeLast=0;collapsible=1;marginBottom=0;whiteSpace=wrap;html=1;" parent="1" vertex="1">
          <mxGeometry x="570" y="470" width="220" height="140" as="geometry" />
        </mxCell>
        <mxCell id="pQx3iZtivwP6ukkQNSp4-23" value="&lt;div&gt;- instance: Database&lt;/div&gt;&lt;div&gt;- connection: Connection&lt;/div&gt;" style="text;strokeColor=none;fillColor=none;align=left;verticalAlign=top;spacingLeft=4;spacingRight=4;overflow=hidden;rotatable=0;points=[[0,0.5],[1,0.5]];portConstraint=eastwest;whiteSpace=wrap;html=1;" parent="pQx3iZtivwP6ukkQNSp4-22" vertex="1">
          <mxGeometry y="26" width="220" height="44" as="geometry" />
        </mxCell>
        <mxCell id="pQx3iZtivwP6ukkQNSp4-24" value="" style="line;strokeWidth=1;fillColor=none;align=left;verticalAlign=middle;spacingTop=-1;spacingLeft=3;spacingRight=3;rotatable=0;labelPosition=right;points=[];portConstraint=eastwest;strokeColor=inherit;" parent="pQx3iZtivwP6ukkQNSp4-22" vertex="1">
          <mxGeometry y="70" width="220" height="8" as="geometry" />
        </mxCell>
        <mxCell id="pQx3iZtivwP6ukkQNSp4-25" value="&lt;div&gt;+ getInstance(): Database&lt;/div&gt;&lt;div&gt;+ getConnection(): Connection&lt;/div&gt;&lt;div&gt;+ getAllCars(): List&amp;lt;Car&amp;gt;&lt;/div&gt;" style="text;strokeColor=none;fillColor=none;align=left;verticalAlign=top;spacingLeft=4;spacingRight=4;overflow=hidden;rotatable=0;points=[[0,0.5],[1,0.5]];portConstraint=eastwest;whiteSpace=wrap;html=1;" parent="pQx3iZtivwP6ukkQNSp4-22" vertex="1">
          <mxGeometry y="78" width="220" height="62" as="geometry" />
        </mxCell>
        <mxCell id="pQx3iZtivwP6ukkQNSp4-27" value="CarView" style="swimlane;fontStyle=1;align=center;verticalAlign=top;childLayout=stackLayout;horizontal=1;startSize=26;horizontalStack=0;resizeParent=1;resizeParentMax=0;resizeLast=0;collapsible=1;marginBottom=0;whiteSpace=wrap;html=1;" parent="1" vertex="1">
          <mxGeometry x="60" y="390" width="230" height="190" as="geometry" />
        </mxCell>
        <mxCell id="pQx3iZtivwP6ukkQNSp4-28" value="&lt;div&gt;- carList: JComboBox&amp;lt;String&amp;gt;&lt;/div&gt;&lt;div&gt;- carImage: JLabel&lt;/div&gt;&lt;div&gt;- carDetails: JTextArea&lt;/div&gt;&lt;div&gt;- controller: CarController&lt;/div&gt;" style="text;strokeColor=none;fillColor=none;align=left;verticalAlign=top;spacingLeft=4;spacingRight=4;overflow=hidden;rotatable=0;points=[[0,0.5],[1,0.5]];portConstraint=eastwest;whiteSpace=wrap;html=1;" parent="pQx3iZtivwP6ukkQNSp4-27" vertex="1">
          <mxGeometry y="26" width="230" height="74" as="geometry" />
        </mxCell>
        <mxCell id="pQx3iZtivwP6ukkQNSp4-29" value="" style="line;strokeWidth=1;fillColor=none;align=left;verticalAlign=middle;spacingTop=-1;spacingLeft=3;spacingRight=3;rotatable=0;labelPosition=right;points=[];portConstraint=eastwest;strokeColor=inherit;" parent="pQx3iZtivwP6ukkQNSp4-27" vertex="1">
          <mxGeometry y="100" width="230" height="8" as="geometry" />
        </mxCell>
        <mxCell id="pQx3iZtivwP6ukkQNSp4-30" value="&lt;div&gt;+ CarView()&lt;/div&gt;&lt;div&gt;+ setController(controller: CarController): void&lt;/div&gt;&lt;div&gt;+ setCarList(cars: List&amp;lt;Car&amp;gt;): void&lt;/div&gt;&lt;div&gt;+ updateCarDetails(car: Car): void&lt;/div&gt;" style="text;strokeColor=none;fillColor=none;align=left;verticalAlign=top;spacingLeft=4;spacingRight=4;overflow=hidden;rotatable=0;points=[[0,0.5],[1,0.5]];portConstraint=eastwest;whiteSpace=wrap;html=1;" parent="pQx3iZtivwP6ukkQNSp4-27" vertex="1">
          <mxGeometry y="108" width="230" height="82" as="geometry" />
        </mxCell>
        <mxCell id="pQx3iZtivwP6ukkQNSp4-31" value="Main" style="swimlane;fontStyle=1;align=center;verticalAlign=top;childLayout=stackLayout;horizontal=1;startSize=26;horizontalStack=0;resizeParent=1;resizeParentMax=0;resizeLast=0;collapsible=1;marginBottom=0;whiteSpace=wrap;html=1;" parent="1" vertex="1">
          <mxGeometry x="340" y="200" width="220" height="70" as="geometry" />
        </mxCell>
        <mxCell id="pQx3iZtivwP6ukkQNSp4-33" value="" style="line;strokeWidth=1;fillColor=none;align=left;verticalAlign=middle;spacingTop=-1;spacingLeft=3;spacingRight=3;rotatable=0;labelPosition=right;points=[];portConstraint=eastwest;strokeColor=inherit;" parent="pQx3iZtivwP6ukkQNSp4-31" vertex="1">
          <mxGeometry y="26" width="220" height="8" as="geometry" />
        </mxCell>
        <mxCell id="pQx3iZtivwP6ukkQNSp4-34" value="+ main(args: String[]): void" style="text;strokeColor=none;fillColor=none;align=left;verticalAlign=top;spacingLeft=4;spacingRight=4;overflow=hidden;rotatable=0;points=[[0,0.5],[1,0.5]];portConstraint=eastwest;whiteSpace=wrap;html=1;" parent="pQx3iZtivwP6ukkQNSp4-31" vertex="1">
          <mxGeometry y="34" width="220" height="36" as="geometry" />
        </mxCell>
        <mxCell id="pQx3iZtivwP6ukkQNSp4-35" style="edgeStyle=orthogonalEdgeStyle;rounded=0;orthogonalLoop=1;jettySize=auto;html=1;entryX=0.5;entryY=0;entryDx=0;entryDy=0;" parent="1" source="pQx3iZtivwP6ukkQNSp4-19" target="pQx3iZtivwP6ukkQNSp4-22" edge="1">
          <mxGeometry relative="1" as="geometry" />
        </mxCell>
        <mxCell id="pQx3iZtivwP6ukkQNSp4-36" style="edgeStyle=orthogonalEdgeStyle;rounded=0;orthogonalLoop=1;jettySize=auto;html=1;entryX=0.5;entryY=0;entryDx=0;entryDy=0;" parent="1" source="pQx3iZtivwP6ukkQNSp4-19" target="pQx3iZtivwP6ukkQNSp4-27" edge="1">
          <mxGeometry relative="1" as="geometry" />
        </mxCell>
        <mxCell id="pQx3iZtivwP6ukkQNSp4-38" style="edgeStyle=orthogonalEdgeStyle;rounded=0;orthogonalLoop=1;jettySize=auto;html=1;entryX=0.75;entryY=0;entryDx=0;entryDy=0;" parent="1" source="pQx3iZtivwP6ukkQNSp4-23" target="pQx3iZtivwP6ukkQNSp4-14" edge="1">
          <mxGeometry relative="1" as="geometry" />
        </mxCell>
        <mxCell id="pQx3iZtivwP6ukkQNSp4-39" style="edgeStyle=orthogonalEdgeStyle;rounded=0;orthogonalLoop=1;jettySize=auto;html=1;entryX=0.301;entryY=1.004;entryDx=0;entryDy=0;entryPerimeter=0;" parent="1" source="pQx3iZtivwP6ukkQNSp4-28" target="pQx3iZtivwP6ukkQNSp4-21" edge="1">
          <mxGeometry relative="1" as="geometry" />
        </mxCell>
        <mxCell id="z1_VXpZgQ2oux5SGRmLL-1" value="Пользователь&lt;div&gt;&lt;br&gt;&lt;/div&gt;" style="shape=umlActor;verticalLabelPosition=bottom;verticalAlign=top;html=1;outlineConnect=0;" vertex="1" parent="1">
          <mxGeometry x="1411" y="504" width="30" height="60" as="geometry" />
        </mxCell>
        <mxCell id="z1_VXpZgQ2oux5SGRmLL-2" value="Пользователь&lt;div&gt;&lt;br&gt;&lt;/div&gt;" style="shape=umlActor;verticalLabelPosition=bottom;verticalAlign=top;html=1;outlineConnect=0;" vertex="1" parent="1">
          <mxGeometry x="1414" y="923" width="30" height="60" as="geometry" />
        </mxCell>
        <mxCell id="z1_VXpZgQ2oux5SGRmLL-3" value="CarView" style="rounded=1;whiteSpace=wrap;html=1;" vertex="1" parent="1">
          <mxGeometry x="1677" y="510" width="120" height="60" as="geometry" />
        </mxCell>
        <mxCell id="z1_VXpZgQ2oux5SGRmLL-4" value="CarView" style="rounded=1;whiteSpace=wrap;html=1;" vertex="1" parent="1">
          <mxGeometry x="1677" y="931" width="120" height="60" as="geometry" />
        </mxCell>
        <mxCell id="z1_VXpZgQ2oux5SGRmLL-5" value="CarController" style="rounded=1;whiteSpace=wrap;html=1;" vertex="1" parent="1">
          <mxGeometry x="1923" y="510" width="120" height="60" as="geometry" />
        </mxCell>
        <mxCell id="z1_VXpZgQ2oux5SGRmLL-6" value="CarController" style="rounded=1;whiteSpace=wrap;html=1;" vertex="1" parent="1">
          <mxGeometry x="1923" y="931" width="120" height="60" as="geometry" />
        </mxCell>
        <mxCell id="z1_VXpZgQ2oux5SGRmLL-7" value="Database" style="rounded=1;whiteSpace=wrap;html=1;" vertex="1" parent="1">
          <mxGeometry x="2140" y="510" width="120" height="60" as="geometry" />
        </mxCell>
        <mxCell id="z1_VXpZgQ2oux5SGRmLL-8" value="Database" style="rounded=1;whiteSpace=wrap;html=1;" vertex="1" parent="1">
          <mxGeometry x="2138" y="918" width="120" height="60" as="geometry" />
        </mxCell>
        <mxCell id="z1_VXpZgQ2oux5SGRmLL-9" value="" style="endArrow=none;dashed=1;html=1;dashPattern=1 3;strokeWidth=2;rounded=0;entryX=0.5;entryY=1;entryDx=0;entryDy=0;exitX=0.5;exitY=0;exitDx=0;exitDy=0;" edge="1" parent="1" source="z1_VXpZgQ2oux5SGRmLL-4" target="z1_VXpZgQ2oux5SGRmLL-3">
          <mxGeometry width="50" height="50" relative="1" as="geometry">
            <mxPoint x="1836" y="673" as="sourcePoint" />
            <mxPoint x="1886" y="623" as="targetPoint" />
          </mxGeometry>
        </mxCell>
        <mxCell id="z1_VXpZgQ2oux5SGRmLL-10" value="" style="endArrow=none;dashed=1;html=1;dashPattern=1 3;strokeWidth=2;rounded=0;entryX=0.5;entryY=1;entryDx=0;entryDy=0;exitX=0.5;exitY=0;exitDx=0;exitDy=0;" edge="1" parent="1" source="z1_VXpZgQ2oux5SGRmLL-6" target="z1_VXpZgQ2oux5SGRmLL-5">
          <mxGeometry width="50" height="50" relative="1" as="geometry">
            <mxPoint x="1836" y="673" as="sourcePoint" />
            <mxPoint x="1886" y="623" as="targetPoint" />
          </mxGeometry>
        </mxCell>
        <mxCell id="z1_VXpZgQ2oux5SGRmLL-11" value="" style="endArrow=none;dashed=1;html=1;dashPattern=1 3;strokeWidth=2;rounded=0;entryX=0.5;entryY=1;entryDx=0;entryDy=0;exitX=0.5;exitY=0;exitDx=0;exitDy=0;" edge="1" parent="1" source="z1_VXpZgQ2oux5SGRmLL-8" target="z1_VXpZgQ2oux5SGRmLL-7">
          <mxGeometry width="50" height="50" relative="1" as="geometry">
            <mxPoint x="1836" y="673" as="sourcePoint" />
            <mxPoint x="1886" y="623" as="targetPoint" />
          </mxGeometry>
        </mxCell>
        <mxCell id="z1_VXpZgQ2oux5SGRmLL-12" value="" style="endArrow=none;dashed=1;html=1;dashPattern=1 3;strokeWidth=2;rounded=0;exitX=0.5;exitY=0;exitDx=0;exitDy=0;exitPerimeter=0;" edge="1" parent="1" source="z1_VXpZgQ2oux5SGRmLL-2" target="z1_VXpZgQ2oux5SGRmLL-1">
          <mxGeometry width="50" height="50" relative="1" as="geometry">
            <mxPoint x="1836" y="673" as="sourcePoint" />
            <mxPoint x="1886" y="623" as="targetPoint" />
          </mxGeometry>
        </mxCell>
        <mxCell id="z1_VXpZgQ2oux5SGRmLL-13" value="" style="endArrow=classic;html=1;rounded=0;dashed=1;" edge="1" parent="1">
          <mxGeometry width="50" height="50" relative="1" as="geometry">
            <mxPoint x="1432" y="610" as="sourcePoint" />
            <mxPoint x="1732" y="610" as="targetPoint" />
          </mxGeometry>
        </mxCell>
        <mxCell id="z1_VXpZgQ2oux5SGRmLL-14" value="Выбирает машину" style="edgeLabel;html=1;align=center;verticalAlign=middle;resizable=0;points=[];" vertex="1" connectable="0" parent="z1_VXpZgQ2oux5SGRmLL-13">
          <mxGeometry x="-0.0744" y="3" relative="1" as="geometry">
            <mxPoint as="offset" />
          </mxGeometry>
        </mxCell>
        <mxCell id="z1_VXpZgQ2oux5SGRmLL-15" value="" style="endArrow=classic;html=1;rounded=0;dashed=1;" edge="1" parent="1">
          <mxGeometry width="50" height="50" relative="1" as="geometry">
            <mxPoint x="1739" y="628" as="sourcePoint" />
            <mxPoint x="1983" y="628" as="targetPoint" />
          </mxGeometry>
        </mxCell>
        <mxCell id="z1_VXpZgQ2oux5SGRmLL-16" value="onCarSelected(selectedCar)" style="edgeLabel;html=1;align=center;verticalAlign=middle;resizable=0;points=[];" vertex="1" connectable="0" parent="z1_VXpZgQ2oux5SGRmLL-15">
          <mxGeometry x="-0.0744" y="3" relative="1" as="geometry">
            <mxPoint as="offset" />
          </mxGeometry>
        </mxCell>
        <mxCell id="z1_VXpZgQ2oux5SGRmLL-17" value="" style="endArrow=classic;html=1;rounded=0;dashed=1;" edge="1" parent="1">
          <mxGeometry width="50" height="50" relative="1" as="geometry">
            <mxPoint x="1983" y="650" as="sourcePoint" />
            <mxPoint x="2203" y="650" as="targetPoint" />
          </mxGeometry>
        </mxCell>
        <mxCell id="z1_VXpZgQ2oux5SGRmLL-18" value="getCarDetails(selectedCar)" style="edgeLabel;html=1;align=center;verticalAlign=middle;resizable=0;points=[];" vertex="1" connectable="0" parent="z1_VXpZgQ2oux5SGRmLL-17">
          <mxGeometry x="-0.0744" y="3" relative="1" as="geometry">
            <mxPoint as="offset" />
          </mxGeometry>
        </mxCell>
        <mxCell id="z1_VXpZgQ2oux5SGRmLL-21" value="" style="endArrow=classic;html=1;rounded=0;dashed=1;" edge="1" parent="1">
          <mxGeometry width="50" height="50" relative="1" as="geometry">
            <mxPoint x="2201" y="717" as="sourcePoint" />
            <mxPoint x="1984" y="717" as="targetPoint" />
          </mxGeometry>
        </mxCell>
        <mxCell id="z1_VXpZgQ2oux5SGRmLL-22" value="new Car" style="edgeLabel;html=1;align=center;verticalAlign=middle;resizable=0;points=[];" vertex="1" connectable="0" parent="z1_VXpZgQ2oux5SGRmLL-21">
          <mxGeometry x="-0.0744" y="3" relative="1" as="geometry">
            <mxPoint as="offset" />
          </mxGeometry>
        </mxCell>
        <mxCell id="z1_VXpZgQ2oux5SGRmLL-23" value="" style="endArrow=classic;html=1;rounded=0;dashed=1;edgeStyle=orthogonalEdgeStyle;" edge="1" parent="1">
          <mxGeometry width="50" height="50" relative="1" as="geometry">
            <mxPoint x="2200" y="663" as="sourcePoint" />
            <mxPoint x="2199" y="703" as="targetPoint" />
            <Array as="points">
              <mxPoint x="2250" y="663" />
              <mxPoint x="2250" y="703" />
            </Array>
          </mxGeometry>
        </mxCell>
        <mxCell id="z1_VXpZgQ2oux5SGRmLL-24" value="sql запрос" style="edgeLabel;html=1;align=center;verticalAlign=middle;resizable=0;points=[];" vertex="1" connectable="0" parent="z1_VXpZgQ2oux5SGRmLL-23">
          <mxGeometry x="-0.0744" y="3" relative="1" as="geometry">
            <mxPoint x="26" y="-1" as="offset" />
          </mxGeometry>
        </mxCell>
        <mxCell id="z1_VXpZgQ2oux5SGRmLL-25" value="" style="endArrow=classic;html=1;rounded=0;dashed=1;" edge="1" parent="1">
          <mxGeometry width="50" height="50" relative="1" as="geometry">
            <mxPoint x="1982" y="739" as="sourcePoint" />
            <mxPoint x="1739" y="739" as="targetPoint" />
          </mxGeometry>
        </mxCell>
        <mxCell id="z1_VXpZgQ2oux5SGRmLL-26" value="updateCarDetails(Car)" style="edgeLabel;html=1;align=center;verticalAlign=middle;resizable=0;points=[];" vertex="1" connectable="0" parent="z1_VXpZgQ2oux5SGRmLL-25">
          <mxGeometry x="-0.0744" y="3" relative="1" as="geometry">
            <mxPoint as="offset" />
          </mxGeometry>
        </mxCell>
        <mxCell id="z1_VXpZgQ2oux5SGRmLL-28" value="" style="endArrow=classic;html=1;rounded=0;dashed=1;edgeStyle=orthogonalEdgeStyle;" edge="1" parent="1">
          <mxGeometry width="50" height="50" relative="1" as="geometry">
            <mxPoint x="1739" y="759.06" as="sourcePoint" />
            <mxPoint x="1738" y="799.06" as="targetPoint" />
            <Array as="points">
              <mxPoint x="1789" y="759.06" />
              <mxPoint x="1789" y="799.06" />
            </Array>
          </mxGeometry>
        </mxCell>
        <mxCell id="z1_VXpZgQ2oux5SGRmLL-29" value="setText()" style="edgeLabel;html=1;align=center;verticalAlign=middle;resizable=0;points=[];" vertex="1" connectable="0" parent="z1_VXpZgQ2oux5SGRmLL-28">
          <mxGeometry x="-0.0744" y="3" relative="1" as="geometry">
            <mxPoint x="26" y="-1" as="offset" />
          </mxGeometry>
        </mxCell>
        <mxCell id="z1_VXpZgQ2oux5SGRmLL-30" value="" style="endArrow=classic;html=1;rounded=0;dashed=1;edgeStyle=orthogonalEdgeStyle;" edge="1" parent="1">
          <mxGeometry width="50" height="50" relative="1" as="geometry">
            <mxPoint x="1738" y="813" as="sourcePoint" />
            <mxPoint x="1737" y="853" as="targetPoint" />
            <Array as="points">
              <mxPoint x="1788" y="813" />
              <mxPoint x="1788" y="853" />
            </Array>
          </mxGeometry>
        </mxCell>
        <mxCell id="z1_VXpZgQ2oux5SGRmLL-31" value="setIcon(newImage())" style="edgeLabel;html=1;align=center;verticalAlign=middle;resizable=0;points=[];" vertex="1" connectable="0" parent="z1_VXpZgQ2oux5SGRmLL-30">
          <mxGeometry x="-0.0744" y="3" relative="1" as="geometry">
            <mxPoint x="26" y="-1" as="offset" />
          </mxGeometry>
        </mxCell>
        <mxCell id="z1_VXpZgQ2oux5SGRmLL-32" value="" style="endArrow=classic;html=1;rounded=0;dashed=1;" edge="1" parent="1">
          <mxGeometry width="50" height="50" relative="1" as="geometry">
            <mxPoint x="1737" y="887" as="sourcePoint" />
            <mxPoint x="1430" y="887" as="targetPoint" />
          </mxGeometry>
        </mxCell>
        <mxCell id="z1_VXpZgQ2oux5SGRmLL-33" value="Отображение машины" style="edgeLabel;html=1;align=center;verticalAlign=middle;resizable=0;points=[];" vertex="1" connectable="0" parent="z1_VXpZgQ2oux5SGRmLL-32">
          <mxGeometry x="-0.0744" y="3" relative="1" as="geometry">
            <mxPoint as="offset" />
          </mxGeometry>
        </mxCell>
      </root>
    </mxGraphModel>
  </diagram>
</mxfile>
